<svg id="Layer_1" data-name="Layer 1" xmlns="http://www.w3.org/2000/svg" viewBox="0 0 512 512"><title>key</title><path d="M256,512,32,384V128L256,0,480,128V384ZM39.88,379.43,256,502.9,472.12,379.43V132.57L256,9.1,39.88,132.57Z" fill="#231f20"/><path d="M205,185.39a19.62,19.62,0,1,0,13.87,5.75A19.48,19.48,0,0,0,205,185.39Zm8.21,27.83a11.91,11.91,0,0,1-16.42,0,11.61,11.61,0,1,1,16.42,0ZM267,239.34a56,56,0,1,0-51,32.75,56.42,56.42,0,0,0,23.28-5l15.43,15.43,21.49,7.59,4.24,19.21,18.89,4.17,4.31,19.46,15.84.35L329.59,352H352V326.37ZM344,344h-9.61l-10-18.63L310.11,325l-4.05-18.31-18.89-4.17L283.07,284l-24-8.46-18.25-18.25-2.61,1.36a48,48,0,1,1,20.38-20.38l-1.34,2.57L344,329.63Z" fill="#231f20"/></svg>